<?xml version="1.0" encoding="utf-8"?>
<!-- Svg Vector Icons : http://www.onlinewebfonts.com/icon -->
<!DOCTYPE svg PUBLIC "-//W3C//DTD SVG 1.1//EN" "http://www.w3.org/Graphics/SVG/1.1/DTD/svg11.dtd">
<svg version="1.1" xmlns="http://www.w3.org/2000/svg" xmlns:xlink="http://www.w3.org/1999/xlink" x="0px" y="0px" viewBox="0 0 256 256" enable-background="new 0 0 256 256" xml:space="preserve">
<metadata> Svg Vector Icons : http://www.onlinewebfonts.com/icon </metadata>
<g><g><g><path fill="#000000" d="M32.1,10.7c-8,1.7-15.3,7.4-18.9,14.6c-3.5,7-3.2-0.2-3.2,103c0,90.8,0,92.7,0.9,96.2c2.6,10.3,10.2,17.9,20.6,20.6C35,246,37,246,128,246c91,0,93,0,96.5-0.9c10.3-2.6,17.9-10.2,20.6-20.6C246,221,246,219,246,128c0-91,0-93-0.9-96.5c-2.6-10.3-10.2-17.9-20.6-20.6C221,10,219.1,10,128,10C50.4,10,34.6,10.2,32.1,10.7z M222,25.5c1.9,0.6,3.1,1.3,5.1,3.4c4.5,4.5,4.1-5.2,4.1,99.1c0,104.4,0.4,94.6-4.1,99.1s5.2,4.1-99.1,4.1c-104.4,0-94.6,0.4-99.1-4.1c-4.5-4.5-4.1,5.2-4.1-99.1c0-104.4-0.4-94.6,4.1-99.1c1.9-1.9,3.3-2.9,4.9-3.4c2-0.6,13.6-0.7,94-0.7C210.4,24.7,219.8,24.8,222,25.5z"/></g></g></g>
</svg>